<svg xmlns="http://www.w3.org/2000/svg" width="110" height="110" viewBox="0 0 110 110"><g fill="none"><path fill="#40AAE3" d="M81.763 89.706a.956.956 0 0 1-.595-1.708c.757-.6 1.503-1.234 2.215-1.884a.958.958 0 0 1 1.29 1.416 44.624 44.624 0 0 1-2.315 1.968.955.955 0 0 1-.595.208m6.86-6.819a.958.958 0 0 1-.746-1.557 41.981 41.981 0 0 0 6.569-11.504.957.957 0 1 1 1.792.675 43.891 43.891 0 0 1-6.867 12.029.956.956 0 0 1-.748.357m9.333-23.474a.958.958 0 0 1-.956-1.034c.09-1.12.135-2.26.135-3.39v-.181a.957.957 0 0 1 .954-.96h.003c.528 0 .956.426.957.954v.187a44.83 44.83 0 0 1-.14 3.542.958.958 0 0 1-.953.882m-.354-9.977a.958.958 0 0 1-.945-.814 41.78 41.78 0 0 0-3.878-12.304.958.958 0 0 1 1.716-.85 43.698 43.698 0 0 1 4.055 12.867.958.958 0 0 1-.948 1.101m-14.93-26.508a.954.954 0 0 1-.614-.224 42.152 42.152 0 0 0-8.846-5.7.958.958 0 0 1 .828-1.727 44.093 44.093 0 0 1 9.247 5.96.957.957 0 0 1-.615 1.69m-52.093-2.423a.957.957 0 0 1-.545-1.745c.97-.671 1.98-1.31 3-1.9a.958.958 0 1 1 .958 1.657 42.338 42.338 0 0 0-2.87 1.818.954.954 0 0 1-.543.17m-14.987 18.145a.957.957 0 0 1-.876-1.343 43.913 43.913 0 0 1 8.927-13.17.957.957 0 1 1 1.366 1.342 42.006 42.006 0 0 0-8.54 12.598.958.958 0 0 1-.877.573m-3.464 13.682l-.08-.003a.958.958 0 0 1-.875-1.034c.082-.985.198-1.981.347-2.959a.957.957 0 1 1 1.893.287 42.369 42.369 0 0 0-.332 2.83.958.958 0 0 1-.953.88m2.482 18.47a.958.958 0 0 1-.9-.627 43.85 43.85 0 0 1-2.65-13.277.957.957 0 1 1 1.914-.081 41.935 41.935 0 0 0 2.534 12.697.958.958 0 0 1-.899 1.288m74.846 26.742a.958.958 0 0 1-.611-1.695 53.428 53.428 0 0 0 7.918-8.126.957.957 0 1 1 1.506 1.183 55.358 55.358 0 0 1-8.202 8.418.955.955 0 0 1-.61.22m11.551-13.274a.958.958 0 0 1-.814-1.46c.518-.84 1.02-1.704 1.488-2.568a.957.957 0 1 1 1.683.913 54.906 54.906 0 0 1-1.541 2.66.958.958 0 0 1-.816.455m6.49-15.515a.958.958 0 0 1-.931-1.184 53.29 53.29 0 0 0 1.483-13.991.958.958 0 1 1 1.915-.05 55.199 55.199 0 0 1-1.537 14.493.958.958 0 0 1-.93.732m.848-21.395a.958.958 0 0 1-.944-.806 52.947 52.947 0 0 0-.59-3.095.958.958 0 0 1 1.87-.415c.234 1.059.44 2.138.61 3.208a.958.958 0 0 1-.946 1.108m-6.765-18.792a.958.958 0 0 1-.827-.472 53.149 53.149 0 0 0-11.132-13.312.957.957 0 1 1 1.25-1.45 55.074 55.074 0 0 1 11.532 13.79.957.957 0 0 1-.824 1.444m-17.342-18.041a.954.954 0 0 1-.518-.152 53.178 53.178 0 0 0-3.421-2.027.957.957 0 1 1 .914-1.683c1.2.652 2.393 1.358 3.544 2.1a.958.958 0 0 1-.52 1.762m-16.951-7.175a.947.947 0 0 1-.217-.026 53.559 53.559 0 0 0-21.218-.578.957.957 0 1 1-.33-1.886 55.454 55.454 0 0 1 21.98.599.958.958 0 0 1-.215 1.89m-33.771 3.065a.958.958 0 0 1-.383-1.836 54.725 54.725 0 0 1 4.07-1.58.957.957 0 1 1 .621 1.811 52.932 52.932 0 0 0-3.927 1.525.956.956 0 0 1-.381.08m-24.789 21.758a.958.958 0 0 1-.82-1.451 55.185 55.185 0 0 1 9.134-11.428.958.958 0 0 1 1.324 1.383 53.273 53.273 0 0 0-8.817 11.032.957.957 0 0 1-.821.464m-4.318 8.974a.956.956 0 0 1-.897-1.291 54.935 54.935 0 0 1 1.575-3.797.958.958 0 0 1 1.74.8 52.832 52.832 0 0 0-1.52 3.664.958.958 0 0 1-.898.624m-3.172 24.145a.958.958 0 0 1-.952-.865 55.837 55.837 0 0 1-.266-5.436c0-3.798.39-7.592 1.158-11.278a.958.958 0 1 1 1.876.391 53.465 53.465 0 0 0-1.117 10.887c0 1.752.086 3.517.256 5.249a.958.958 0 0 1-.955 1.052m1.995 10.15a.958.958 0 0 1-.918-.684 54.777 54.777 0 0 1-1.364-5.64.958.958 0 1 1 1.884-.351c.34 1.83.783 3.661 1.316 5.443a.958.958 0 0 1-.919 1.232m19.173 27.593a.953.953 0 0 1-.578-.194 55.56 55.56 0 0 1-15.444-18.152.958.958 0 0 1 1.694-.897 53.633 53.633 0 0 0 14.907 17.52.958.958 0 0 1-.58 1.722m8.926 5.491a.956.956 0 0 1-.42-.097 55.2 55.2 0 0 1-4.214-2.29.958.958 0 0 1 .988-1.643 53.153 53.153 0 0 0 4.067 2.211.959.959 0 0 1-.42 1.82m23.672 5.448c-3.125 0-6.26-.264-9.316-.786a.958.958 0 1 1 .322-1.89c2.95.504 5.976.76 8.994.76 4.566 0 9.1-.58 13.475-1.726a.958.958 0 1 1 .485 1.854 55.167 55.167 0 0 1-13.96 1.788m20.121-3.871a.959.959 0 0 1-.357-1.848 53.106 53.106 0 0 0 3.858-1.732.958.958 0 1 1 .855 1.716 55.06 55.06 0 0 1-3.999 1.795.955.955 0 0 1-.357.069m-20.121-7.069c-7.08 0-14.117-1.72-20.351-4.974a44.429 44.429 0 0 1-15.339-13.256.958.958 0 0 1 1.552-1.125c7.91 10.92 20.673 17.44 34.138 17.44a41.857 41.857 0 0 0 16.397-3.31.959.959 0 0 1 .747 1.765 43.77 43.77 0 0 1-17.144 3.46"/><path fill="#40AAE3" d="M90.654 28.556c-.315 0-.634.04-.952.125l-16 4.244a3.692 3.692 0 0 0-2.261 1.726 3.693 3.693 0 0 0-.379 2.82c.255.96.868 1.763 1.727 2.262.859.498 1.86.633 2.82.378l15.999-4.243a3.722 3.722 0 0 0 2.64-4.547 3.725 3.725 0 0 0-3.594-2.765zm-16.008 13.598a5.599 5.599 0 0 1-2.82-.764 5.596 5.596 0 0 1-2.616-3.428 5.597 5.597 0 0 1 .574-4.273 5.596 5.596 0 0 1 3.427-2.616l16-4.244a5.64 5.64 0 0 1 6.89 4 5.64 5.64 0 0 1-4.002 6.891l-15.999 4.244c-.48.127-.969.19-1.454.19z"/><path fill="#FFF" d="M78.32 76.77v-60.204a5.027 5.027 0 0 0-5.027-5.027h-26.357a5.026 5.026 0 0 0-5.026 5.027v52.04l.059.958 1.341 11.69c.566.221 2.982.542 3.626.542h26.357a5.026 5.026 0 0 0 5.027-5.026"/><path fill="#40AAE3" d="M73.293 82.754h-28.081c-.75 0-1.482-.137-2.176-.408a.958.958 0 1 1 .697-1.785c.47.184.968.277 1.479.277h28.081a4.073 4.073 0 0 0 4.069-4.068v-60.204a4.073 4.073 0 0 0-4.069-4.069h-28.081a4.073 4.073 0 0 0-4.069 4.069v52.04a.958.958 0 1 1-1.916 0v-52.04c0-3.3 2.685-5.985 5.985-5.985h28.081c3.3 0 5.985 2.685 5.985 5.985v60.204c0 3.3-2.685 5.984-5.985 5.984M44.358 72.665h29.79a.09.09 0 0 0 .014-.054v-51.887a.09.09 0 0 0-.015-.054h-29.79a.091.091 0 0 0-.014.054v51.886a.09.09 0 0 0 .015.054zm29.808 1.917h-29.826c-1.055 0-1.913-.884-1.913-1.97v-51.889c0-1.087.858-1.97 1.913-1.97h29.827c1.055 0 1.913.883 1.913 1.97v51.887c0 1.087-.858 1.97-1.913 1.97zm-12.459 3.204a2.455 2.455 0 1 1-4.91 0 2.455 2.455 0 0 1 4.91 0m1.832-60.436h-7.69a.958.958 0 1 1 0-1.917h7.69a.958.958 0 1 1 0 1.917m-10.419-.001l-.186-.017a.98.98 0 0 1-.61-.408 1.028 1.028 0 0 1-.144-.345.966.966 0 0 1 .263-.864.966.966 0 0 1 1.045-.208.962.962 0 0 1 .573.698 1.017 1.017 0 0 1 0 .374 1.028 1.028 0 0 1-.144.345.962.962 0 0 1-.61.408 1.022 1.022 0 0 1-.187.017m-24.865 72.381a.958.958 0 0 1-.958-.957v-44.574a2.463 2.463 0 0 1 2.46-2.46c6.279 0 11.386 5.108 11.386 11.386v16.508c0 .53-.178-1.027-.707-1.027-.53 0-1.209-.429-1.209-.958v-14.523c0-5.222-4.248-9.47-9.47-9.47-.3 0-.544.244-.544.544v44.574c0 .529-.428.958-.958.958"/><path fill="#40AAE3" d="M41.753 85.453a.958.958 0 0 1-.853-1.394 13.902 13.902 0 0 0 1.526-6.375 14.06 14.06 0 0 0-4.796-10.574.958.958 0 0 1 1.263-1.442 15.977 15.977 0 0 1 5.45 12.016c0 2.55-.584 4.989-1.735 7.246a.958.958 0 0 1-.855.523m-12.54-34.353h4.395a5.452 5.452 0 0 0-4.395-4.395v4.395zm5.438 1.916h-6.396a.958.958 0 0 1-.958-.958v-6.396c0-.529.43-.958.958-.958 4.055 0 7.354 3.3 7.354 7.354 0 .53-.429.958-.958.958z"/><path fill="#FFF" d="M71.97 58.847a3.521 3.521 0 0 1 3.095-3.902l4.718-.544a3.522 3.522 0 0 1 .807 6.996l-4.718.545a3.521 3.521 0 0 1-3.901-3.095"/><path fill="#40AAE3" d="M80.189 55.336l-.296.017-4.718.544a2.545 2.545 0 0 0-1.714.954 2.546 2.546 0 0 0-.539 1.886 2.567 2.567 0 0 0 2.84 2.253l4.719-.544a2.566 2.566 0 0 0 2.252-2.84 2.567 2.567 0 0 0-2.544-2.27zm-4.723 7.587a4.486 4.486 0 0 1-4.447-3.966 4.45 4.45 0 0 1 .94-3.297 4.45 4.45 0 0 1 2.997-1.666l4.718-.545a4.452 4.452 0 0 1 3.296.941 4.449 4.449 0 0 1 1.667 2.996 4.45 4.45 0 0 1-.94 3.297 4.45 4.45 0 0 1-2.997 1.667l-4.718.544c-.174.02-.346.03-.516.03z"/><path fill="#FFF" d="M71.944 67.944a3.291 3.291 0 0 1 2.893-3.647l4.41-.509a3.292 3.292 0 0 1 .753 6.54l-4.41.508a3.291 3.291 0 0 1-3.646-2.892"/><path fill="#40AAE3" d="M72.896 67.834a2.337 2.337 0 0 0 2.585 2.05l4.41-.508a2.318 2.318 0 0 0 1.56-.868 2.318 2.318 0 0 0 .49-1.717 2.337 2.337 0 0 0-2.585-2.051l-4.41.509a2.336 2.336 0 0 0-2.05 2.585zm2.31 3.983c-.955 0-1.875-.32-2.633-.921a4.222 4.222 0 0 1-1.581-2.843 4.254 4.254 0 0 1 3.735-4.708l4.41-.509a4.253 4.253 0 0 1 4.708 3.735 4.254 4.254 0 0 1-3.735 4.709l-4.41.508a4.354 4.354 0 0 1-.495.029zm-42.152-13.231h-4.799a.958.958 0 1 1 0-1.917h4.799a.958.958 0 1 1 0 1.917m-2.03 2.706h-2.769a.958.958 0 1 1 0-1.916h2.769a.958.958 0 1 1 0 1.916m44.239-4.352h.002-.002zm.434.437a.77.77 0 0 0-.088.005l-.291.033a.758.758 0 0 0-.669.844l.07.613a.756.756 0 0 0 .284.509c.16.126.358.183.56.16l.29-.034a.758.758 0 0 0 .67-.843l-.071-.613a.755.755 0 0 0-.284-.51.754.754 0 0 0-.47-.164zm-.225 3.127c-.386 0-.758-.129-1.065-.373a1.707 1.707 0 0 1-.639-1.15l-.07-.613a1.708 1.708 0 0 1 .36-1.265c.286-.36.694-.587 1.15-.64l.29-.033c.457-.053.906.076 1.266.361s.587.694.64 1.15l.07.613a1.72 1.72 0 0 1-1.51 1.905l-.291.034a1.762 1.762 0 0 1-.2.011zM75.1 66.64a.612.612 0 0 0-.536.677l.074.64a.61.61 0 0 0 .677.537l.346-.04a.607.607 0 0 0 .536-.676l-.073-.641a.611.611 0 0 0-.677-.537l-.347.04zm.141 2.817c-.352 0-.691-.118-.972-.34a1.558 1.558 0 0 1-.583-1.05l-.074-.64c-.099-.86.52-1.64 1.378-1.739l.347-.04a1.57 1.57 0 0 1 1.739 1.38l.073.64c.048.416-.069.826-.33 1.155-.26.328-.632.535-1.049.583l-.346.04-.183.01zm-12.841 28.731a.958.958 0 0 1-.627-1.683 30.727 30.727 0 0 0 9.514-14.967.958.958 0 1 1 1.845.517 32.637 32.637 0 0 1-10.104 15.899.955.955 0 0 1-.627.234"/><path fill="#9ED9F9" d="M63.655 47.28l-2.057 2.057-6.748-6.748a2.28 2.28 0 0 0-3.223 3.224l8.693 8.693c.706.706 1.85.706 2.556 0l4.002-4.002a2.28 2.28 0 1 0-3.223-3.224"/><path fill="#40AAE3" d="M53.238 42.88a1.317 1.317 0 0 0-1.32 1.321c0 .353.137.685.386.934l8.693 8.694a.851.851 0 0 0 1.202 0l4.002-4.002c.25-.25.387-.582.387-.935 0-.353-.138-.685-.387-.934a1.312 1.312 0 0 0-.935-.387c-.353 0-.684.137-.934.387l-2.056 2.056a.958.958 0 0 1-1.355 0l-6.748-6.747a1.317 1.317 0 0 0-.935-.387zm8.36 13.112c-.708 0-1.417-.27-1.956-.808l-8.692-8.694a3.217 3.217 0 0 1-.948-2.29c0-.865.336-1.678.948-2.29a3.241 3.241 0 0 1 4.579 0l6.07 6.07 1.38-1.378a3.241 3.241 0 0 1 4.578 0c.611.611.948 1.424.948 2.29 0 .864-.337 1.677-.948 2.289l-4.002 4.002c-.54.539-1.248.808-1.956.808z"/><path fill="#FFF" d="M71.604 49.253a4.038 4.038 0 0 1 3.548-4.474l5.41-.623a4.037 4.037 0 0 1 .925 8.022l-5.41.623a4.037 4.037 0 0 1-4.473-3.548"/><path fill="#40AAE3" d="M72.556 49.143a3.06 3.06 0 0 0 1.145 2.06 3.06 3.06 0 0 0 2.266.646l5.41-.623a3.06 3.06 0 0 0 2.06-1.146 3.06 3.06 0 0 0 .647-2.266 3.06 3.06 0 0 0-1.146-2.06 3.061 3.061 0 0 0-2.266-.647l-5.41.624a3.06 3.06 0 0 0-2.06 1.146 3.06 3.06 0 0 0-.646 2.266zm3.05 4.644a4.957 4.957 0 0 1-3.096-1.083 4.964 4.964 0 0 1-1.858-3.341 4.963 4.963 0 0 1 1.049-3.677 4.965 4.965 0 0 1 3.342-1.858l5.41-.624a4.966 4.966 0 0 1 3.676 1.049 4.964 4.964 0 0 1 1.858 3.341 4.962 4.962 0 0 1-1.048 3.677 4.963 4.963 0 0 1-3.342 1.858l-5.41.624c-.195.023-.389.034-.582.034zM75.692 47.106a1.441 1.441 0 0 0-1.265 1.595l.052.447c.09.788.807 1.355 1.595 1.265a1.441 1.441 0 0 0 1.265-1.595l-.052-.447a1.43 1.43 0 0 0-.535-.963 1.43 1.43 0 0 0-1.06-.302zm.215 4.275c-1.2 0-2.24-.903-2.38-2.123l-.052-.447a2.4 2.4 0 0 1 2.108-2.657 2.385 2.385 0 0 1 1.764.504c.502.398.819.967.892 1.603l.052.447a2.4 2.4 0 0 1-2.384 2.673zm24.436 33.95a.958.958 0 0 1-.803-1.48c.22-.336.437-.68.647-1.02a.958.958 0 1 1 1.63 1.006c-.217.353-.442.71-.669 1.058a.957.957 0 0 1-.805.436"/></g></svg>