<svg enable-background="new 0 0 110 110" viewBox="0 0 110 110" xmlns="http://www.w3.org/2000/svg"><g fill="#40aae3"><path d="m30.1 28.5h49.8v-4h-49.8zm50.7 1.9h-51.6c-.5 0-.9-.4-.9-.9v-5.9c0-.5.4-.9.9-.9h51.6c.5 0 .9.4.9.9v5.9c.1.5-.4.9-.9.9z"/><path d="m33 27.4h-.2c-.1 0-.1 0-.2-.1l-.2-.1c-.1 0-.1-.1-.1-.1-.2-.2-.3-.4-.3-.7s.1-.5.3-.7l.1-.1.2-.1c.1 0 .1 0 .2-.1h.4c.1 0 .1 0 .2.1l.2.1c.1 0 .1.1.1.1.2.2.3.4.3.7 0 .2-.1.5-.3.7-.2.3-.4.3-.7.3"/><path d="m37 27.4h-.2c-.1 0-.1 0-.2-.1l-.2-.1c-.1 0-.1-.1-.1-.1l-.1-.1-.1-.2c0-.1 0-.1-.1-.2v-.4c0-.1 0-.1.1-.2l.1-.2c0-.1.1-.1.1-.1l.1-.1.2-.1c.1 0 .1 0 .2-.1h.4c.1 0 .1 0 .2.1l.2.1c.1 0 .1.1.1.1l.1.1.1.2c0 .1 0 .1.1.2v.4c0 .1 0 .1-.1.2l-.1.2c0 .1-.1.1-.1.1l-.1.1-.2.1c-.1 0-.1 0-.2.1z"/><path d="m41.1 27.4h-.2c-.1 0-.1 0-.2-.1l-.2-.1c-.1 0-.1-.1-.1-.1-.2-.2-.3-.4-.3-.7s.1-.5.3-.7l.1-.1.2-.1c.1 0 .1 0 .2-.1h.4c.1 0 .1 0 .2.1l.2.1c.1 0 .1.1.1.1.2.2.3.4.3.7s-.1.5-.3.7c-.3.3-.5.3-.7.3"/><path d="m64.2 86.7h-18.7c-.6 0-1.1-.5-1.1-1.1s.5-1.1 1.1-1.1h18.7c.6 0 1.1.5 1.1 1.1s-.5 1.1-1.1 1.1z"/><path d="m55 100.9c-5.1 0-10.2-.8-15-2.5-.5-.2-.7-.7-.6-1.2.2-.5.7-.7 1.2-.6 4.6 1.6 9.5 2.4 14.4 2.4s9.8-.8 14.4-2.4c.5-.2 1 .1 1.2.6s-.1 1-.6 1.2c-4.8 1.6-9.9 2.5-15 2.5"/><path d="m75.8 95.8c-.3 0-.7-.2-.8-.5-.2-.5-.1-1 .4-1.3 1.2-.6 2.5-1.4 3.7-2.1.4-.3 1-.2 1.3.3.3.4.2 1-.3 1.3-1.2.8-2.5 1.5-3.8 2.2-.2.1-.4.1-.5.1"/><path d="m91.8 29.8c-.3 0-.6-.1-.8-.4-.5-.8-1.1-1.5-1.7-2.2-.3-.4-.3-1 .1-1.3s1-.3 1.3.1l1.8 2.3c.3.4.2 1-.2 1.3-.1.2-.3.2-.5.2"/><path d="m84.6 21.9c-.2 0-.4-.1-.6-.2-6.8-6-15.2-9.6-24.2-10.6-.5-.1-.9-.5-.8-1s.5-.9 1-.8c9.4 1 18.1 4.8 25.2 11 .4.3.4.9.1 1.3-.2.2-.4.3-.7.3"/><path d="m30.3 18.2c-.3 0-.6-.1-.8-.4-.3-.4-.2-1 .3-1.3 6.1-4 13.2-6.5 20.5-7.3.5-.1 1 .3 1 .8.1.5-.3 1-.8 1-7 .7-13.8 3.1-19.7 7-.2.2-.4.2-.5.2"/><path d="m18.3 29.8c-.2 0-.4-.1-.5-.2-.4-.3-.5-.9-.2-1.3 1.1-1.6 2.4-3.1 3.7-4.5.4-.4.9-.4 1.3-.1s.4.9.1 1.3c-1.3 1.4-2.5 2.8-3.5 4.3-.4.3-.7.5-.9.5"/><path d="m32.6 94.9c-.2 0-.3 0-.5-.1-.7-.4-1.4-.8-2.1-1.3-.4-.3-.6-.9-.3-1.3s.9-.6 1.3-.3l2 1.2c.4.3.6.8.3 1.3-.1.3-.4.5-.7.5"/><path d="m27.4 102.3c-.2 0-.3 0-.5-.1-3-1.8-5.8-3.9-8.5-6.2-.4-.3-.4-.9-.1-1.3s.9-.4 1.3-.1c2.5 2.2 5.3 4.3 8.2 6 .4.3.6.8.3 1.3-.1.2-.4.4-.7.4"/><path d="m55 109.8c-6 0-11.9-1-17.6-2.9-.5-.2-.8-.7-.6-1.2s.7-.8 1.2-.6c5.4 1.8 11.2 2.8 17 2.8 4.9 0 9.8-.7 14.4-2 .5-.1 1 .1 1.2.6.1.5-.1 1-.6 1.2-4.9 1.4-9.9 2.1-15 2.1"/><path d="m78.5 104.5c-.3 0-.7-.2-.8-.5-.2-.5 0-1 .4-1.2 4.6-2.2 8.8-5.1 12.6-8.5.4-.3 1-.3 1.3.1s.3 1-.1 1.3c-3.9 3.6-8.3 6.5-13.1 8.8z"/><path d="m104 78.7c-.1 0-.3 0-.4-.1-.5-.2-.7-.8-.5-1.2 3-6.5 4.7-13.4 4.9-20.5 0-.5.4-.9 1-.9.5 0 .9.5.9 1-.3 7.4-2 14.6-5.1 21.3-.1.2-.4.4-.8.4"/><path d="m108.6 48.8c-.5 0-.9-.3-.9-.8-.2-1.6-.5-3.2-.9-4.8-.1-.5.2-1 .7-1.1s1 .2 1.1.7c.4 1.6.7 3.3.9 5 .1.5-.3 1-.8 1z"/><path d="m100.6 26.8c-.3 0-.6-.2-.8-.4-2.8-4.4-6.3-8.4-10.3-11.8-.4-.3-.4-.9-.1-1.3s.9-.4 1.3-.1c4.2 3.5 7.8 7.7 10.7 12.2.3.4.2 1-.3 1.3-.2.1-.4.1-.5.1"/><path d="m85.6 11.4c-.2 0-.4-.1-.5-.2-.9-.6-1.7-1.2-2.6-1.7-.4-.3-.6-.8-.3-1.3.3-.4.8-.6 1.3-.3.9.6 1.8 1.1 2.7 1.8.4.3.5.9.2 1.3-.2.2-.5.4-.8.4"/><path d="m68.4 3.5h-.2c-2.2-.5-4.3-.9-6.5-1.2-.5-.1-.9-.5-.8-1s.5-.9 1-.8c2.2.3 4.5.7 6.7 1.3.5.1.8.6.7 1.1-.1.4-.5.6-.9.6"/><path d="m47.1 2.5c-.5 0-.9-.3-.9-.8-.1-.5.3-1 .8-1.1 2.6-.4 5.3-.6 8-.6 2.3 0 4.6.1 6.9.4.5.1.9.5.8 1s-.5.9-1 .8c-2.2-.2-4.5-.3-6.7-.3-2.6 0-5.2.2-7.8.6z"/><path d="m40.5 3.9c-.4 0-.8-.3-.9-.7-.1-.5.2-1 .7-1.1 2.2-.6 4.4-1.1 6.7-1.4.5-.1 1 .3 1.1.8s-.3 1-.8 1.1c-2.2.3-4.4.8-6.5 1.4-.2-.2-.2-.1-.3-.1"/><path d="m22.2 13c-.3 0-.6-.1-.7-.4-.3-.4-.2-1 .2-1.3.9-.7 1.9-1.4 2.9-2.1.4-.3 1-.2 1.3.3.3.4.2 1-.3 1.3-1 .6-1.9 1.3-2.8 2-.2.1-.4.2-.6.2"/><path d="m6 33.1c-.1 0-.3 0-.4-.1-.5-.2-.7-.8-.5-1.2 3-6.4 7.1-12.1 12.2-16.9.4-.4 1-.3 1.3 0 .4.4.3 1 0 1.3-5 4.7-9 10.2-11.8 16.3-.2.4-.5.6-.8.6"/><path d="m1 52.4c-.6 0-1-.5-.9-1 .1-1.7.3-3.4.6-5.1.1-.5.6-.9 1.1-.8s.9.6.8 1.1c-.3 1.6-.4 3.3-.5 4.9-.2.5-.6.9-1.1.9"/><path d="m5.5 77.6c-.4 0-.7-.2-.9-.6-2.6-6-4.2-12.5-4.5-19.2 0-.5.4-1 .9-1s1 .4 1 .9c.3 6.5 1.8 12.7 4.4 18.6.2.5 0 1-.5 1.2-.1.1-.3.1-.4.1"/><path d="m37.5 40h12.5c.6 0 1-.4 1-1s-.4-1-1-1h-12.5c-.6 0-1 .4-1 1s.4 1 1 1z"/><path d="m37.5 44h22.5c.6 0 1-.4 1-1s-.4-1-1-1h-22.5c-.6 0-1 .4-1 1s.4 1 1 1z"/><path d="m37.5 48h3.5c.6 0 1-.4 1-1s-.4-1-1-1h-3.5c-.6 0-1 .4-1 1s.4 1 1 1z"/><path d="m37.5 56h8.5c.6 0 1-.4 1-1s-.4-1-1-1h-8.5c-.6 0-1 .4-1 1s.4 1 1 1z"/><path d="m37.5 72h8.5c.6 0 1-.4 1-1s-.4-1-1-1h-8.5c-.6 0-1 .4-1 1s.4 1 1 1z"/><path d="m37.5 60h8.5c.6 0 1-.4 1-1s-.4-1-1-1h-8.5c-.6 0-1 .4-1 1s.4 1 1 1z"/><path d="m37.5 76h8.5c.6 0 1-.4 1-1s-.4-1-1-1h-8.5c-.6 0-1 .4-1 1s.4 1 1 1z"/><path d="m37.5 64h4.5c.6 0 1-.4 1-1s-.4-1-1-1h-4.5c-.6 0-1 .4-1 1s.4 1 1 1z"/><path d="m37.5 80h4.5c.6 0 1-.4 1-1s-.4-1-1-1h-4.5c-.6 0-1 .4-1 1s.4 1 1 1z"/><path d="m53 65h18v-9h-18zm-2-10c0-.6.4-1 1-1h20c.6 0 1 .4 1 1v11c0 .6-.4 1-1 1h-20c-.6 0-1-.4-1-1z"/><path d="m53 81h18v-9h-18zm-2-10c0-.6.4-1 1-1h20c.6 0 1 .4 1 1v11c0 .6-.4 1-1 1h-20c-.6 0-1-.4-1-1z"/><path d="m45.5 48h8.5c.6 0 1-.4 1-1s-.4-1-1-1h-8.5c-.6 0-1 .4-1 1s.4 1 1 1z"/><path d="m58.5 48h13.5c.6 0 1-.4 1-1s-.4-1-1-1h-13.5c-.6 0-1 .4-1 1s.4 1 1 1z"/><path d="m64.5 44h7.8c.6 0 1-.4 1-1s-.4-1-1-1h-7.8c-.6 0-1 .4-1 1s.4 1 1 1z"/><path d="m107 83.9c-.3-1.3-1.7-2.2-3.3-2.2h-5.7v-44.7c0-3.6-2.9-6.5-6.5-6.5h-9.7v-6.9c0-.5-.4-.9-.9-.9h-51.7c-.5 0-.9.4-.9.9v6.9h-9.7c-3.6 0-6.5 2.9-6.5 6.5v44.7h-5.5c-1.6 0-2.9.9-3.3 2.2-.3 1.1.3 2.3 1.4 2.9 3.1 1.7 6.7 2.6 10.4 2.6h79.9c3.8 0 7.4-.9 10.4-2.6 1.4-.6 1.9-1.7 1.6-2.9zm-25.2-51.5h9.7c2.6 0 4.7 2.1 4.7 4.6v44.7h-3.7v-40.8c0-2.7-2.2-4.9-4.9-4.9h-5.8zm0 5.6h5.8c1.7 0 3 1.4 3 3v40.8h-8.8zm-51.7-13.5h49.8v57.2h-49.8zm-16.2 12.5c0-2.3 1.7-4.2 3.9-4.6.2 0 .5-.1.8-.1h9.7v3.7h-5.8c-2.7 0-4.9 2.2-4.9 4.9v40.8h-3.7zm14.3 1v43.8h-8.8v-40.8c0-1.7 1.4-3 3-3zm76.5 47.2c-2.8 1.5-6.1 2.4-9.5 2.4h-80c-3.4 0-6.7-.8-9.5-2.4-.2-.1-.6-.4-.5-.8s.6-.8 1.4-.8h97.1c.9 0 1.3.4 1.4.8.2.4-.2.7-.4.8z"/></g></svg>