<svg xmlns="http://www.w3.org/2000/svg" width="110" height="110" viewBox="0 0 110 110"><g fill="#40AAE3" fill-rule="evenodd"><path d="M98.406 59.216l-.068-.002a.979.979 0 0 1-.91-1.044 43.526 43.526 0 0 0 .069-4.69.979.979 0 0 1 1.956-.076 45.64 45.64 0 0 1-.071 4.9.979.979 0 0 1-.976.912m-.803-11.936a.979.979 0 0 1-.958-.781 42.387 42.387 0 0 0-5.004-12.964.979.979 0 1 1 1.686-.994 44.333 44.333 0 0 1 5.235 13.562.979.979 0 0 1-.96 1.177m-10.605-20.666a.976.976 0 0 1-.721-.317 43.421 43.421 0 0 0-1.643-1.693.979.979 0 1 1 1.366-1.401c.585.57 1.163 1.166 1.718 1.77a.979.979 0 0 1-.72 1.64m-5.354-4.934a.973.973 0 0 1-.6-.207 42.55 42.55 0 0 0-12.286-6.672.979.979 0 1 1 .639-1.85 44.501 44.501 0 0 1 12.85 6.98.979.979 0 0 1-.603 1.75m-19.516-8.6a.973.973 0 0 1-.164-.014 43.176 43.176 0 0 0-12.135-.31.98.98 0 0 1-.226-1.944 45.125 45.125 0 0 1 12.687.325.978.978 0 0 1-.162 1.943m-31.701 6.815a.977.977 0 0 1-.547-1.79 44.42 44.42 0 0 1 12.75-5.914.978.978 0 1 1 .532 1.884 42.466 42.466 0 0 0-12.19 5.653.974.974 0 0 1-.545.167m-7.186 6.049a.979.979 0 0 1-.707-1.656 45.297 45.297 0 0 1 2.24-2.18.978.978 0 1 1 1.317 1.448 43.003 43.003 0 0 0-2.143 2.087.976.976 0 0 1-.707.301m-11.508 22.786a.979.979 0 0 1-.966-1.144 44.334 44.334 0 0 1 4.666-13.537.978.978 0 1 1 1.723.927 42.38 42.38 0 0 0-4.46 12.94.979.979 0 0 1-.963.814m-.554 10.111a.979.979 0 0 1-.976-.92 45.638 45.638 0 0 1-.026-4.966.979.979 0 0 1 1.955.096 43.695 43.695 0 0 0 .025 4.753.979.979 0 0 1-.978 1.037m66.644 45.959a.979.979 0 0 1-.414-1.865 53.194 53.194 0 0 0 2.31-1.146.979.979 0 1 1 .912 1.731c-.785.414-1.59.814-2.395 1.189a.974.974 0 0 1-.413.092m6.771-3.771a.978.978 0 0 1-.538-1.797 52.64 52.64 0 0 0 10.48-9.037.98.98 0 0 1 1.463 1.302 54.626 54.626 0 0 1-10.87 9.372.974.974 0 0 1-.535.16m20.204-24.428a.978.978 0 0 1-.903-1.354c.337-.813.658-1.646.955-2.475a.98.98 0 0 1 1.843.66c-.308.859-.641 1.722-.991 2.566a.979.979 0 0 1-.904.603m2.703-8.381a.978.978 0 0 1-.953-1.202 52.614 52.614 0 0 0 1.363-10.53.979.979 0 0 1 1.957.053 54.563 54.563 0 0 1-1.414 10.924.98.98 0 0 1-.953.755m.735-20.671a.978.978 0 0 1-.965-.824 53.133 53.133 0 0 0-.295-1.672.979.979 0 0 1 1.922-.37c.111.575.214 1.158.305 1.734a.979.979 0 0 1-.967 1.133m-1.563-6.879a.98.98 0 0 1-.938-.7 53.363 53.363 0 0 0-3.383-8.58.979.979 0 1 1 1.752-.874c1.42 2.85 2.6 5.844 3.507 8.897a.979.979 0 0 1-.938 1.257m-9.109-17.753a.978.978 0 0 1-.774-.379 51.908 51.908 0 0 0-1.205-1.495.978.978 0 1 1 1.501-1.256c.425.508.845 1.03 1.25 1.55a.979.979 0 0 1-.772 1.58m-5.273-5.849a.974.974 0 0 1-.677-.272 52.696 52.696 0 0 0-9.358-7.134.979.979 0 0 1 1.006-1.68 54.664 54.664 0 0 1 9.706 7.4.979.979 0 0 1-.677 1.686m-19.426-11.912a.981.981 0 0 1-.325-.056 53.17 53.17 0 0 0-2.392-.78.979.979 0 1 1 .562-1.874c.827.248 1.662.52 2.48.808a.979.979 0 0 1-.325 1.902m-7.807-2.106a.986.986 0 0 1-.185-.018 52.559 52.559 0 0 0-14.56-.71.979.979 0 0 1-.177-1.95 54.496 54.496 0 0 1 15.103.737.979.979 0 0 1-.181 1.94m-26.844 1.763a.98.98 0 0 1-.305-1.909 55.575 55.575 0 0 1 2.19-.67.979.979 0 0 1 .533 1.883c-.705.2-1.415.417-2.112.646a.981.981 0 0 1-.306.05m-18.513 10.493a.979.979 0 0 1-.642-1.718 54.835 54.835 0 0 1 14.075-8.865.978.978 0 1 1 .78 1.795 52.886 52.886 0 0 0-13.573 8.549.975.975 0 0 1-.64.239m-12.996 16.876a.979.979 0 0 1-.877-1.41 55.56 55.56 0 0 1 1.106-2.131.979.979 0 0 1 1.717.939 53.476 53.476 0 0 0-1.067 2.055.979.979 0 0 1-.879.547m-5.419 27.664a.979.979 0 0 1-.975-.908 54.302 54.302 0 0 1 2.6-21.027.979.979 0 0 1 1.859.612 52.354 52.354 0 0 0-2.506 20.273.979.979 0 0 1-.977 1.05m3.803 16.343a.98.98 0 0 1-.908-.613 55.535 55.535 0 0 1-.96-2.557.978.978 0 1 1 1.848-.643c.287.825.599 1.655.927 2.467a.98.98 0 0 1-.907 1.345m13.984 19.936a.975.975 0 0 1-.653-.25 54.564 54.564 0 0 1-11.107-13.807.979.979 0 1 1 1.703-.964 52.604 52.604 0 0 0 10.71 13.313.978.978 0 0 1-.653 1.708m19.265 11.09a.982.982 0 0 1-.304-.05 55.36 55.36 0 0 1-2.916-1.045.979.979 0 1 1 .711-1.823c.927.362 1.874.701 2.813 1.009a.978.978 0 0 1-.304 1.909m16.663 2.662c-3.214 0-6.427-.286-9.62-.86a.979.979 0 0 1 .345-1.926 52.46 52.46 0 0 0 19.88-.254.978.978 0 1 1 .394 1.918 54.716 54.716 0 0 1-11 1.122m-.196-66.447a.979.979 0 0 1-.978-.978v-17.486a.979.979 0 1 1 1.957 0v17.486c0 .54-.438.978-.979.978"/><path d="M84.517 85.87l-16.4-24.949 9.436-9.546 16.303 21.182a42.628 42.628 0 0 1-9.339 13.313zm-29.713 12.052c-10.62 0-20.603-4-28.244-10.723l17.012-25.879v-.001l4.244-6.454a14.122 14.122 0 0 0 6.988 1.852c2.41 0 4.82-.619 6.989-1.853l21.265 32.349c-7.631 6.717-17.605 10.71-28.254 10.71zm-39.036-25.342l16.321-21.205 9.416 9.526-16.403 24.953a42.644 42.644 0 0 1-9.334-13.274zm39.036-28.347l5.911 8.992a12.163 12.163 0 0 1-11.822 0l5.911-8.992zm42.356 21.832a.978.978 0 0 0-1.207.678 42.294 42.294 0 0 1-1.234 3.725l-16.299-21.176a.978.978 0 0 0-1.471-.09l-9.932 10.047-4.11-6.255h-.001l-.001-.001-7.283-11.08a.978.978 0 0 0-1.635 0l-11.383 17.317-9.91-10.03a.975.975 0 0 0-1.472.091l-16.322 21.207a42.167 42.167 0 0 1-1.124-3.336.979.979 0 0 0-1.88.547c2.242 7.7 6.623 14.75 12.512 20.233.073.118.17.223.292.304l.092.048c.95.865 1.937 1.69 2.962 2.47 7.829 5.963 17.183 9.116 27.05 9.116 9.948 0 19.363-3.199 27.227-9.25.961-.74 1.89-1.519 2.785-2.332l.092-.052a.97.97 0 0 0 .294-.306 45.185 45.185 0 0 0 10.618-15.009.975.975 0 0 0 .106-.248 43.868 43.868 0 0 0 1.91-5.412.978.978 0 0 0-.678-1.206zm-23.696-29.785c-2.68 2.326-5.345 1.036-8.414-.45-1.924-.933-3.995-1.936-6.122-1.936-1.038 0-2.09.24-3.145.844v-9.342c2.68-2.326 5.345-1.035 8.414.451 2.863 1.387 6.054 2.933 9.267 1.092v9.342zm1.36-12.215a.978.978 0 0 0-1.062.198c-2.782 2.695-5.53 1.364-8.712-.177-3.357-1.626-7.162-3.47-10.927.177a.98.98 0 0 0-.297.703v11.744a.979.979 0 0 0 1.66.703c2.78-2.694 5.529-1.364 8.71.178 1.925.932 3.996 1.935 6.123 1.935 1.583 0 3.198-.556 4.805-2.113a.979.979 0 0 0 .297-.703v-11.744a.979.979 0 0 0-.597-.9z"/></g></svg>