<svg xmlns="http://www.w3.org/2000/svg" width="110" height="107" viewBox="0 0 110 107"><g fill="#40AAE3" fill-rule="evenodd"><path d="M93.203 94.421a.925.925 0 0 1-.65-1.575 53.976 53.976 0 0 0 1.563-1.635.918.918 0 0 1 1.3-.055.924.924 0 0 1 .055 1.303 56.342 56.342 0 0 1-1.617 1.692.916.916 0 0 1-.65.27m4.153-4.674a.924.924 0 0 1-.72-1.496 53.536 53.536 0 0 0 4.708-7.035.918.918 0 0 1 1.252-.352c.443.249.6.811.352 1.256a55.414 55.414 0 0 1-4.871 7.278.917.917 0 0 1-.721.349m9.259-17.569a.923.923 0 0 1-.879-1.196c.3-.968.575-1.955.817-2.934a.919.919 0 1 1 1.785.444 55.153 55.153 0 0 1-.845 3.037.92.92 0 0 1-.878.649m1.886-8.427a.922.922 0 0 1-.912-1.052 54.143 54.143 0 0 0-.052-15.44.92.92 0 1 1 1.82-.271 55.932 55.932 0 0 1 .054 15.97.92.92 0 0 1-.91.793m-2.386-25.297a.92.92 0 0 1-.87-.622 53.11 53.11 0 0 0-.799-2.175.92.92 0 1 1 1.712-.675c.29.739.568 1.496.826 2.25a.923.923 0 0 1-.87 1.222m-2.737-6.55a.92.92 0 0 1-.823-.51 53.448 53.448 0 0 0-6.34-9.85.924.924 0 0 1 .133-1.298.918.918 0 0 1 1.294.133 55.296 55.296 0 0 1 6.559 10.191.924.924 0 0 1-.823 1.334m-13.918-17.579a.914.914 0 0 1-.587-.213 53.564 53.564 0 0 0-3.602-2.745.924.924 0 0 1-.23-1.284.918.918 0 0 1 1.28-.231c1.276.89 2.53 1.845 3.726 2.84a.924.924 0 0 1-.588 1.633m-7.866-5.444a.915.915 0 0 1-.452-.12 52.668 52.668 0 0 0-14.605-5.632.923.923 0 0 1 .399-1.801 54.51 54.51 0 0 1 15.113 5.828.924.924 0 0 1-.455 1.725m-64.796 85.54a.916.916 0 0 1-.65-.27 56.544 56.544 0 0 1-1.618-1.692.925.925 0 0 1 .055-1.303.918.918 0 0 1 1.3.055 53.95 53.95 0 0 0 1.563 1.635.925.925 0 0 1-.65 1.575m-4.153-4.674a.918.918 0 0 1-.722-.35 55.42 55.42 0 0 1-4.871-7.277.924.924 0 0 1 .352-1.256.919.919 0 0 1 1.252.352 53.524 53.524 0 0 0 4.709 7.035.924.924 0 0 1-.72 1.496m-9.26-17.569a.92.92 0 0 1-.878-.65c-.31-.999-.594-2.02-.845-3.036a.92.92 0 1 1 1.785-.445c.243.982.518 1.969.817 2.935a.923.923 0 0 1-.879 1.196m-1.886-8.427a.92.92 0 0 1-.91-.793 55.993 55.993 0 0 1 .055-15.971.92.92 0 1 1 1.82.271 54.07 54.07 0 0 0-.053 15.442.922.922 0 0 1-.912 1.052m2.387-25.298a.923.923 0 0 1-.87-1.222c.258-.753.536-1.51.826-2.25a.92.92 0 1 1 1.712.675c-.28.715-.55 1.447-.799 2.175a.92.92 0 0 1-.87.622m2.738-6.55a.924.924 0 0 1-.822-1.334 55.287 55.287 0 0 1 6.558-10.19.918.918 0 0 1 1.294-.134.924.924 0 0 1 .133 1.298 53.447 53.447 0 0 0-6.34 9.85.92.92 0 0 1-.823.51m13.918-17.579a.924.924 0 0 1-.588-1.632 55.418 55.418 0 0 1 3.727-2.841.918.918 0 0 1 1.28.23.924.924 0 0 1-.23 1.285 53.661 53.661 0 0 0-3.602 2.745.914.914 0 0 1-.586.213m7.866-5.444a.924.924 0 0 1-.454-1.725 54.505 54.505 0 0 1 15.112-5.828.922.922 0 0 1 .398 1.801 52.665 52.665 0 0 0-14.603 5.631.915.915 0 0 1-.452.12m55.149 77.793a.924.924 0 0 1-.65-1.575 40.13 40.13 0 0 0 1.161-1.216.918.918 0 0 1 1.3-.055.924.924 0 0 1 .055 1.304c-.394.43-.803.857-1.216 1.272a.915.915 0 0 1-.65.27m3.104-3.494a.924.924 0 0 1-.72-1.496 39.815 39.815 0 0 0 3.5-5.228.918.918 0 0 1 1.252-.352c.442.249.6.811.351 1.255a41.625 41.625 0 0 1-3.662 5.472.916.916 0 0 1-.72.349m6.921-13.133a.923.923 0 0 1-.879-1.196c.223-.719.427-1.453.607-2.18a.92.92 0 1 1 1.785.444c-.188.762-.402 1.53-.635 2.283a.92.92 0 0 1-.878.649m1.41-6.299a.922.922 0 0 1-.912-1.052 40.257 40.257 0 0 0-.039-11.475.919.919 0 1 1 1.82-.271 42.059 42.059 0 0 1 .04 12.005.92.92 0 0 1-.91.793m-1.783-18.909a.92.92 0 0 1-.87-.623 39.92 39.92 0 0 0-.593-1.616.92.92 0 1 1 1.712-.675c.218.558.428 1.127.62 1.691a.923.923 0 0 1-.87 1.223m-2.045-4.896a.92.92 0 0 1-.824-.51 39.733 39.733 0 0 0-4.71-7.32.924.924 0 0 1 .132-1.298.918.918 0 0 1 1.294.133 41.578 41.578 0 0 1 4.93 7.66.923.923 0 0 1-.822 1.335m-10.405-13.142a.914.914 0 0 1-.586-.212 39.89 39.89 0 0 0-2.677-2.04.924.924 0 0 1-.23-1.284.918.918 0 0 1 1.28-.23c.958.667 1.9 1.385 2.8 2.134a.924.924 0 0 1-.587 1.633m-5.88-4.069a.913.913 0 0 1-.453-.12 39.145 39.145 0 0 0-10.852-4.186.922.922 0 0 1 .398-1.8 40.977 40.977 0 0 1 11.362 4.38.924.924 0 0 1-.455 1.726m-48.435 63.941a.916.916 0 0 1-.65-.27 41.774 41.774 0 0 1-1.216-1.272.924.924 0 0 1 .055-1.304.918.918 0 0 1 1.3.055c.375.41.766.82 1.161 1.216a.924.924 0 0 1-.65 1.575m-3.104-3.494a.916.916 0 0 1-.721-.35 41.647 41.647 0 0 1-3.662-5.47.924.924 0 0 1 .351-1.256.919.919 0 0 1 1.253.352 39.834 39.834 0 0 0 3.499 5.228.924.924 0 0 1-.72 1.496m-6.922-13.133a.92.92 0 0 1-.878-.65 41.321 41.321 0 0 1-.635-2.282.92.92 0 1 1 1.785-.445c.18.73.385 1.464.607 2.18a.923.923 0 0 1-.879 1.197m-1.41-6.299a.92.92 0 0 1-.91-.793 42.072 42.072 0 0 1 .041-12.005.92.92 0 1 1 1.82.27 40.2 40.2 0 0 0-.04 11.476.922.922 0 0 1-.91 1.052m1.783-18.909a.923.923 0 0 1-.87-1.222c.194-.566.403-1.136.622-1.692a.92.92 0 1 1 1.711.675 39.543 39.543 0 0 0-.593 1.616.92.92 0 0 1-.87.623m2.046-4.896a.923.923 0 0 1-.822-1.335 41.566 41.566 0 0 1 4.93-7.66.918.918 0 0 1 1.294-.133.924.924 0 0 1 .133 1.297 39.718 39.718 0 0 0-4.711 7.32.92.92 0 0 1-.824.51m10.405-13.141a.924.924 0 0 1-.588-1.632c.9-.748 1.843-1.467 2.801-2.135a.918.918 0 0 1 1.28.231.924.924 0 0 1-.23 1.284 39.906 39.906 0 0 0-2.677 2.04.914.914 0 0 1-.586.213m5.88-4.069a.924.924 0 0 1-.454-1.725 40.977 40.977 0 0 1 11.36-4.382.922.922 0 0 1 .398 1.8 39.143 39.143 0 0 0-10.851 4.186.915.915 0 0 1-.453.12m22.89-20.784l-.051-.001a54.075 54.075 0 0 0-5.696-.012.923.923 0 0 1-.095-1.844c1.948-.099 3.94-.095 5.891.012a.921.921 0 0 1 .868.972.92.92 0 0 1-.918.872m-14.776 71.791h23.32v-1.114h-23.32v1.114zm24.24 1.845h-25.16a.92.92 0 0 1-.92-.922v-2.96a.92.92 0 0 1 .92-.922h25.16a.92.92 0 0 1 .92.923v2.959a.92.92 0 0 1-.92.922zm-12.445-47.21c-2.968 0-5.383 2.421-5.383 5.398s2.415 5.399 5.383 5.399 5.383-2.422 5.383-5.399-2.415-5.398-5.383-5.398zm0 12.641c-3.982 0-7.222-3.249-7.222-7.243s3.24-7.243 7.222-7.243 7.222 3.25 7.222 7.243c0 3.994-3.24 7.243-7.222 7.243zM55.03 31.255a2.514 2.514 0 0 0-2.507 2.515 2.514 2.514 0 0 0 2.507 2.515 2.514 2.514 0 0 0 2.508-2.515 2.514 2.514 0 0 0-2.508-2.515zm0 6.875c-2.397 0-4.347-1.956-4.347-4.36 0-2.404 1.95-4.36 4.347-4.36 2.397 0 4.347 1.956 4.347 4.36 0 2.404-1.95 4.36-4.347 4.36zM92.205 70.778h-18.58a70.672 70.672 0 0 0 2.16-17.37c0-3.431-.244-6.826-.725-10.164a35.716 35.716 0 0 0 9.503 10.257c.171.124.34.255.5.39l.01.008a19.836 19.836 0 0 1 7.132 15.26v1.62zm-22.7 0h-31.171a68.81 68.81 0 0 1-2.22-17.37c0-5.994.769-11.873 2.254-17.526.31-.936.583-1.886.817-2.85 3.092-9.979 8.461-19.168 15.845-26.905 7.23 7.577 12.532 16.544 15.653 26.283a.934.934 0 0 0 .018.146c.31 1.363.7 2.7 1.165 4.006a68.954 68.954 0 0 1 2.08 16.845c0 5.886-.747 11.726-2.22 17.371h-2.221zm-51.71-1.618c0-5.91 2.6-11.473 7.132-15.261l.007-.006c.16-.134.33-.266.503-.392a35.72 35.72 0 0 0 9.58-10.383 71.304 71.304 0 0 0-.742 10.29c0 5.88.726 11.718 2.16 17.37h-18.64v-1.618zm68.465-16.67l-.008-.008a11.033 11.033 0 0 0-.612-.477 33.809 33.809 0 0 1-12-15.95c-3.014-11.934-9.136-22.905-17.954-31.9a.918.918 0 0 0-1.312 0c-7.781 7.937-13.463 17.414-16.762 27.732a.915.915 0 0 0-.107.259l-.078.326c-.299.965-.577 1.937-.834 2.915a33.803 33.803 0 0 1-12.233 16.618c-.21.153-.416.314-.611.477l-.005.004a21.678 21.678 0 0 0-7.788 16.674v2.54c0 .51.411.923.92.923h76.249c.508 0 .92-.413.92-.922v-2.541a21.677 21.677 0 0 0-7.785-16.67zM54.11 70.778h1.84v-19.74a.922.922 0 0 0-.92-.922.922.922 0 0 0-.92.923v19.74zm2.76 1.845h-3.68a.92.92 0 0 1-.919-.922v-20.662a2.766 2.766 0 0 1 2.76-2.768 2.766 2.766 0 0 1 2.758 2.768v20.661a.92.92 0 0 1-.92.922zm-1.896-51.662a18.672 18.672 0 0 1-10.12-2.967.924.924 0 0 1-.279-1.275.918.918 0 0 1 1.27-.278 16.84 16.84 0 0 0 9.13 2.676c3.28 0 6.463-.942 9.203-2.725a.919.919 0 0 1 1.273.272.924.924 0 0 1-.272 1.276 18.665 18.665 0 0 1-10.205 3.021m-6.934 59.5a.921.921 0 0 1-.919-.922v-4.864c0-.51.412-.922.92-.922s.92.413.92.922v4.864c0 .509-.412.922-.92.922m-.001 5.674a.921.921 0 0 0-.919.922c0 4.422-2.609 8.429-6.646 10.208a.923.923 0 0 0 .37 1.768c.124 0 .25-.026.37-.079a13 13 0 0 0 7.745-11.897.921.921 0 0 0-.92-.922m14.634-1.52c.508 0 .92-.412.92-.922v-3.02a.92.92 0 0 0-1.84 0v3.02c0 .51.412.922.92.922m8.166 13.403c-4.266-1.152-7.246-5.056-7.246-9.493a.92.92 0 0 0-1.84 0c0 5.27 3.54 9.906 8.608 11.275a.92.92 0 0 0 1.127-.651.923.923 0 0 0-.649-1.13m-33.895-1.311a10.545 10.545 0 0 0 6.282-9.65.923.923 0 0 0-.02-.193.922.922 0 0 0 .02-.193v-11.997a.921.921 0 0 0-.92-.922.921.921 0 0 0-.919.922v11.997l.02.193a.923.923 0 0 0-.02.192 8.7 8.7 0 0 1-5.183 7.962l-.106.06a6.467 6.467 0 0 0-5.561-3.18 6.442 6.442 0 0 0-4.756 2.096 8.958 8.958 0 0 0-5.814-2.157 8.913 8.913 0 0 0-7.033 3.43 8.196 8.196 0 0 0-2.922-.54c-4.565 0-8.278 3.724-8.278 8.301 0 1.12.22 2.208.651 3.232a.92.92 0 1 0 1.694-.719 6.431 6.431 0 0 1-.506-2.513c0-3.56 2.889-6.457 6.439-6.457a6.461 6.461 0 0 1 6.307 5.155.92.92 0 1 0 1.802-.37 8.292 8.292 0 0 0-3.516-5.225 7.08 7.08 0 0 1 5.362-2.45c1.763 0 3.466.666 4.766 1.844a6.5 6.5 0 0 0-.377 4.777.92.92 0 1 0 1.758-.545 4.66 4.66 0 0 1-.206-1.372c0-2.56 2.077-4.642 4.629-4.642 2.552 0 4.629 2.082 4.629 4.642 0 .467-.07.927-.204 1.368a.92.92 0 1 0 1.758.543 6.5 6.5 0 0 0 .078-3.54.938.938 0 0 0 .146-.05m63.042-1.979a8.197 8.197 0 0 0-2.922.54 8.913 8.913 0 0 0-7.033-3.43 8.958 8.958 0 0 0-5.814 2.157 6.443 6.443 0 0 0-4.756-2.096 6.467 6.467 0 0 0-5.596 3.24 8.705 8.705 0 0 1-5.479-8.082.923.923 0 0 0-.02-.192.922.922 0 0 0 .02-.193v-11.997a.921.921 0 0 0-.92-.922.921.921 0 0 0-.92.922v11.997l.022.193a.911.911 0 0 0-.021.192c0 4.438 2.75 8.243 6.63 9.793a6.492 6.492 0 0 0 .102 3.447.92.92 0 1 0 1.758-.543 4.652 4.652 0 0 1-.205-1.368c0-2.56 2.077-4.642 4.63-4.642 2.551 0 4.628 2.082 4.628 4.642 0 .468-.07.93-.206 1.372a.923.923 0 0 0 .88 1.195.92.92 0 0 0 .878-.65 6.506 6.506 0 0 0-.377-4.777 7.118 7.118 0 0 1 4.766-1.844 7.08 7.08 0 0 1 5.362 2.45 8.292 8.292 0 0 0-3.516 5.225.92.92 0 1 0 1.802.37 6.462 6.462 0 0 1 6.307-5.155c3.55 0 6.439 2.897 6.439 6.457 0 .872-.17 1.718-.506 2.513a.924.924 0 0 0 .847 1.282.92.92 0 0 0 .847-.563 8.269 8.269 0 0 0 .651-3.232c0-4.577-3.713-8.301-8.278-8.301m-45.099-5.904a.92.92 0 0 0-.92.923v3.074c0 .51.412.923.92.923.507 0 .92-.413.92-.923v-3.074a.921.921 0 0 0-.92-.923m0-15.071a.921.921 0 0 0-.92.922v9.783c0 .51.412.923.92.923.507 0 .92-.413.92-.923v-9.783a.921.921 0 0 0-.92-.922"/></g></svg>